<svg id="Слой_1" data-name="Слой 1" xmlns="http://www.w3.org/2000/svg" xmlns:xlink="http://www.w3.org/1999/xlink" viewBox="0 0 260.75 267.74"><defs><style>.cls-1{font-size:43.16px;fill:#fff;font-family:Montserrat-Bold, Montserrat;font-weight:700;}.cls-2{fill:url(#Безымянный_градиент_22);}.cls-3{fill:url(#Безымянный_градиент_22-2);}.cls-4{fill:url(#Безымянный_градиент_22-3);}.cls-5{fill:url(#Безымянный_градиент_22-4);}.cls-6{fill:url(#Безымянный_градиент_22-5);}.cls-7{fill:url(#Безымянный_градиент_94);}.cls-8{fill:#ffa027;}.cls-9{fill:#ff8b12;}</style><linearGradient id="Безымянный_градиент_22" x1="-226.36" y1="475.36" x2="-172.03" y2="505.69" gradientUnits="userSpaceOnUse"><stop offset="0" stop-color="#faff67"/><stop offset="0.15" stop-color="#fbd652"/><stop offset="0.49" stop-color="#fba841"/><stop offset="0.62" stop-color="#fb7d32"/><stop offset="1" stop-color="#fb5327"/></linearGradient><linearGradient id="Безымянный_градиент_22-2" x1="-212.97" y1="475.9" x2="-282.97" y2="452.56" xlink:href="#Безымянный_градиент_22"/><linearGradient id="Безымянный_градиент_22-3" x1="-463" y1="510.29" x2="-270" y2="447.62" xlink:href="#Безымянный_градиент_22"/><linearGradient id="Безымянный_градиент_22-4" x1="-289.72" y1="411.01" x2="-307.06" y2="527.01" xlink:href="#Безымянный_градиент_22"/><linearGradient id="Безымянный_градиент_22-5" x1="-364.95" y1="468.04" x2="-270.62" y2="509.71" xlink:href="#Безымянный_градиент_22"/><linearGradient id="Безымянный_градиент_94" x1="-340.29" y1="476.06" x2="-393.3" y2="462.73" gradientUnits="userSpaceOnUse"><stop offset="0.11" stop-color="#faff67"/><stop offset="0.32" stop-color="#fbd652"/><stop offset="0.6" stop-color="#fba841"/><stop offset="0.8" stop-color="#fb7d32"/><stop offset="0.89" stop-color="#fb7b31"/><stop offset="0.94" stop-color="#fb732f"/><stop offset="0.97" stop-color="#fb662c"/><stop offset="1" stop-color="#fb5427"/><stop offset="1" stop-color="#fb5327"/></linearGradient></defs><title>Миллениум</title><text class="cls-1" transform="translate(0 256.25)">MILLENIUM</text><path class="cls-2" d="M-191.12,557.71V407.11s-8.26,67.52-56,144.55Z" transform="translate(418.5 -377.34)"/><path class="cls-3" d="M-247.15,551.67c47.77-77,56-144.55,56-144.55l-56-29.78Z" transform="translate(418.5 -377.34)"/><path class="cls-4" d="M-329.09,377.34l-9.5,123.32,19.85,52.26C-308.61,468.87-329.09,377.34-329.09,377.34Z" transform="translate(418.5 -377.34)"/><path class="cls-5" d="M-329.09,377.34s20.48,91.53,10.34,175.59l53-5.2Z" transform="translate(418.5 -377.34)"/><path class="cls-6" d="M-329.09,577.83V377.34S-353,536.27-381.71,567.19Z" transform="translate(418.5 -377.34)"/><path class="cls-7" d="M-381.71,567.19c28.72-30.92,52.62-189.85,52.62-189.85l-56,22.16Z" transform="translate(418.5 -377.34)"/><path class="cls-8" d="M-265.83,544c-.71-57,18.67-166.7,18.67-166.7l-71.59,175.59,53-5.19h0Q-265.8,545.92-265.83,544Z" transform="translate(418.5 -377.34)"/><path class="cls-9" d="M-247.15,500.66V377.34S-266.54,487-265.83,544q0,1.88.08,3.69h.08Z" transform="translate(418.5 -377.34)"/></svg>